<svg width="108" height="25" viewBox="0 0 108 25" fill="none" xmlns="http://www.w3.org/2000/svg">
<path d="M0.295455 24V0.727272H9.02273C10.8106 0.727272 12.3106 1.03788 13.5227 1.65909C14.7424 2.2803 15.6629 3.15151 16.2841 4.27273C16.9129 5.38636 17.2273 6.68561 17.2273 8.17045C17.2273 9.66288 16.9091 10.9583 16.2727 12.0568C15.6439 13.1477 14.7159 13.9924 13.4886 14.5909C12.2614 15.1818 10.7538 15.4773 8.96591 15.4773H2.75V11.9773H8.39773C9.44318 11.9773 10.2992 11.8333 10.9659 11.5455C11.6326 11.25 12.125 10.822 12.4432 10.2614C12.7689 9.69318 12.9318 8.99621 12.9318 8.17045C12.9318 7.3447 12.7689 6.64015 12.4432 6.05682C12.1174 5.46591 11.6212 5.01894 10.9545 4.71591C10.2879 4.4053 9.42803 4.25 8.375 4.25H4.51136V24H0.295455ZM12.3182 13.4545L18.0795 24H13.375L7.71591 13.4545H12.3182ZM25.9489 24.3523C24.8428 24.3523 23.8466 24.1553 22.9602 23.7614C22.0814 23.3598 21.3845 22.7689 20.8693 21.9886C20.3617 21.2083 20.108 20.2462 20.108 19.1023C20.108 18.1174 20.2898 17.303 20.6534 16.6591C21.017 16.0152 21.5133 15.5 22.142 15.1136C22.7708 14.7273 23.4792 14.4356 24.267 14.2386C25.0625 14.0341 25.8845 13.8864 26.733 13.7955C27.7557 13.6894 28.5852 13.5947 29.2216 13.5114C29.858 13.4205 30.3201 13.2841 30.608 13.1023C30.9034 12.9129 31.0511 12.6212 31.0511 12.2273V12.1591C31.0511 11.303 30.7973 10.6402 30.2898 10.1705C29.7822 9.70076 29.0511 9.46591 28.0966 9.46591C27.089 9.46591 26.2898 9.68561 25.6989 10.125C25.1155 10.5644 24.7216 11.0833 24.517 11.6818L20.6761 11.1364C20.9792 10.0758 21.4792 9.18939 22.1761 8.47727C22.8731 7.75757 23.7254 7.2197 24.733 6.86364C25.7405 6.5 26.8542 6.31818 28.0739 6.31818C28.9148 6.31818 29.7519 6.41667 30.5852 6.61364C31.4186 6.81061 32.1799 7.13636 32.8693 7.59091C33.5587 8.03788 34.1117 8.64773 34.5284 9.42045C34.9527 10.1932 35.1648 11.1591 35.1648 12.3182V24H31.2102V21.6023H31.0739C30.8239 22.0871 30.4716 22.5417 30.017 22.9659C29.5701 23.3826 29.0057 23.7197 28.3239 23.9773C27.6496 24.2273 26.858 24.3523 25.9489 24.3523ZM27.017 21.3295C27.8428 21.3295 28.5587 21.1667 29.1648 20.8409C29.7708 20.5076 30.2367 20.0682 30.5625 19.5227C30.8958 18.9773 31.0625 18.3826 31.0625 17.7386V15.6818C30.9337 15.7879 30.714 15.8864 30.4034 15.9773C30.1004 16.0682 29.7595 16.1477 29.3807 16.2159C29.0019 16.2841 28.6269 16.3447 28.2557 16.3977C27.8845 16.4508 27.5625 16.4962 27.2898 16.5341C26.6761 16.6174 26.1269 16.7538 25.642 16.9432C25.1572 17.1326 24.7746 17.3977 24.4943 17.7386C24.214 18.072 24.0739 18.5038 24.0739 19.0341C24.0739 19.7917 24.3504 20.3636 24.9034 20.75C25.4564 21.1364 26.161 21.3295 27.017 21.3295ZM48.017 6.54545V9.72727H37.983V6.54545H48.017ZM40.4602 2.36364H44.5739V18.75C44.5739 19.303 44.6572 19.7273 44.8239 20.0227C44.9981 20.3106 45.2254 20.5076 45.5057 20.6136C45.786 20.7197 46.0966 20.7727 46.4375 20.7727C46.6951 20.7727 46.9299 20.7538 47.142 20.7159C47.3617 20.678 47.5284 20.6439 47.642 20.6136L48.3352 23.8295C48.1155 23.9053 47.8011 23.9886 47.392 24.0795C46.9905 24.1705 46.4981 24.2235 45.9148 24.2386C44.8845 24.2689 43.9564 24.1136 43.1307 23.7727C42.3049 23.4242 41.6496 22.8864 41.1648 22.1591C40.6875 21.4318 40.4527 20.5227 40.4602 19.4318V2.36364ZM58.9972 24.3409C57.2472 24.3409 55.7358 23.9773 54.4631 23.25C53.1979 22.5152 52.2244 21.4773 51.5426 20.1364C50.8608 18.7879 50.5199 17.2008 50.5199 15.375C50.5199 13.5795 50.8608 12.0038 51.5426 10.6477C52.232 9.28409 53.1941 8.22348 54.429 7.46591C55.6638 6.70076 57.1146 6.31818 58.7812 6.31818C59.857 6.31818 60.8722 6.49242 61.8267 6.84091C62.7888 7.18182 63.6373 7.71212 64.3722 8.43182C65.1146 9.15151 65.6979 10.0682 66.1222 11.1818C66.5464 12.2879 66.7585 13.6061 66.7585 15.1364V16.3977H52.4517V13.625H62.8153C62.8078 12.8371 62.6373 12.1364 62.304 11.5227C61.9706 10.9015 61.5047 10.4129 60.9062 10.0568C60.3153 9.70076 59.6259 9.52273 58.8381 9.52273C57.9972 9.52273 57.2585 9.72727 56.6222 10.1364C55.9858 10.5379 55.4896 11.0682 55.1335 11.7273C54.785 12.3788 54.607 13.0947 54.5994 13.875V16.2955C54.5994 17.3106 54.785 18.1818 55.1562 18.9091C55.5275 19.6288 56.0464 20.1818 56.7131 20.5682C57.3797 20.947 58.16 21.1364 59.054 21.1364C59.6525 21.1364 60.1941 21.053 60.679 20.8864C61.1638 20.7121 61.5843 20.4583 61.9403 20.125C62.2964 19.7917 62.5653 19.3788 62.7472 18.8864L66.5881 19.3182C66.3456 20.3333 65.8835 21.2197 65.2017 21.9773C64.5275 22.7273 63.6638 23.3106 62.6108 23.7273C61.5578 24.1364 60.3532 24.3409 58.9972 24.3409ZM85.0909 0.727272H89.3068V15.9318C89.3068 17.5985 88.9129 19.0644 88.125 20.3295C87.3447 21.5947 86.2462 22.5833 84.8295 23.2955C83.4129 24 81.7576 24.3523 79.8636 24.3523C77.9621 24.3523 76.303 24 74.8864 23.2955C73.4697 22.5833 72.3712 21.5947 71.5909 20.3295C70.8106 19.0644 70.4205 17.5985 70.4205 15.9318V0.727272H74.6364V15.5795C74.6364 16.5492 74.8485 17.4129 75.2727 18.1705C75.7045 18.928 76.3106 19.5227 77.0909 19.9545C77.8712 20.3788 78.7955 20.5909 79.8636 20.5909C80.9318 20.5909 81.8561 20.3788 82.6364 19.9545C83.4242 19.5227 84.0303 18.928 84.4545 18.1705C84.8788 17.4129 85.0909 16.5492 85.0909 15.5795V0.727272ZM107.503 11.1591L103.753 11.5682C103.647 11.1894 103.461 10.8333 103.196 10.5C102.938 10.1667 102.59 9.89773 102.151 9.69318C101.711 9.48864 101.173 9.38636 100.537 9.38636C99.6809 9.38636 98.9612 9.57197 98.3778 9.94318C97.8021 10.3144 97.518 10.7955 97.5256 11.3864C97.518 11.8939 97.7036 12.3068 98.0824 12.625C98.4688 12.9432 99.1051 13.2045 99.9915 13.4091L102.969 14.0455C104.62 14.4015 105.848 14.9659 106.651 15.7386C107.461 16.5114 107.87 17.5227 107.878 18.7727C107.87 19.8712 107.548 20.8409 106.912 21.6818C106.283 22.5152 105.408 23.1667 104.287 23.6364C103.166 24.1061 101.878 24.3409 100.423 24.3409C98.2869 24.3409 96.5672 23.8939 95.2642 23C93.9612 22.0985 93.1847 20.8447 92.9347 19.2386L96.946 18.8523C97.1278 19.6402 97.5142 20.2348 98.1051 20.6364C98.696 21.0379 99.465 21.2386 100.412 21.2386C101.389 21.2386 102.173 21.0379 102.764 20.6364C103.363 20.2348 103.662 19.7386 103.662 19.1477C103.662 18.6477 103.469 18.2348 103.082 17.9091C102.704 17.5833 102.113 17.3333 101.31 17.1591L98.3324 16.5341C96.6581 16.1856 95.4195 15.5985 94.6165 14.7727C93.8134 13.9394 93.4157 12.8864 93.4233 11.6136C93.4157 10.5379 93.7074 9.60606 94.2983 8.81818C94.8968 8.02273 95.7263 7.40909 96.7869 6.97727C97.8551 6.53788 99.0862 6.31818 100.48 6.31818C102.526 6.31818 104.135 6.75379 105.31 7.625C106.491 8.49621 107.223 9.67424 107.503 11.1591Z" fill="black"/>
</svg>
